<?xml version="1.0" standalone="no"?>
<!DOCTYPE svg PUBLIC "-//W3C//DTD SVG 20010904//EN"
 "http://www.w3.org/TR/2001/REC-SVG-20010904/DTD/svg10.dtd">
<svg version="1.0" xmlns="http://www.w3.org/2000/svg"
 width="1280.000000pt" height="914.000000pt" viewBox="0 0 1280.000000 914.000000"
 preserveAspectRatio="xMidYMid meet">
<metadata>
Created by potrace 1.15, written by Peter Selinger 2001-2017
</metadata>
<g transform="translate(0.000000,914.000000) scale(0.100000,-0.100000)"
fill="#000000" stroke="none">
<path d="M9944 9111 c-154 -78 -189 -266 -73 -392 27 -30 39 -50 36 -64 -3
-11 -16 -58 -30 -105 -37 -121 -64 -266 -78 -404 -13 -135 -2 -258 32 -359 11
-33 19 -60 17 -62 -2 -1 -32 -21 -68 -45 -187 -125 -357 -268 -516 -433 l-121
-125 -104 29 c-519 145 -1232 228 -1630 189 -309 -31 -583 -111 -884 -260
-482 -238 -943 -643 -1349 -1185 -142 -188 -193 -265 -401 -600 -345 -555
-548 -833 -789 -1082 l-108 -112 -82 63 c-44 35 -133 97 -196 139 -102 66
-157 99 -328 194 -34 19 -40 27 -33 41 20 37 41 175 41 264 0 165 -34 370 -95
570 -32 107 -32 108 -12 125 11 10 30 41 43 68 88 187 -83 394 -285 345 -149
-35 -231 -198 -171 -338 24 -55 82 -116 133 -137 29 -12 31 -16 29 -61 -8
-156 -47 -306 -93 -359 -26 -29 -38 -35 -70 -35 -81 0 -147 61 -371 340 -85
107 -171 212 -190 232 -27 29 -37 49 -42 89 -34 252 -358 312 -470 87 -32 -64
-35 -153 -7 -213 37 -80 132 -144 215 -145 25 -1 38 -10 70 -52 22 -28 131
-126 242 -219 111 -93 221 -190 243 -217 104 -121 101 -206 -11 -263 -45 -23
-180 -56 -263 -64 l-60 -5 -30 47 c-134 212 -455 118 -457 -132 -1 -139 108
-248 248 -247 76 0 141 28 185 81 l31 36 130 -32 c238 -60 503 -80 648 -49 77
17 68 23 138 -104 63 -116 133 -273 178 -403 31 -90 35 -110 23 -118 -27 -17
-215 -88 -289 -108 -135 -38 -474 -24 -712 29 -638 142 -1088 599 -1294 1314
-84 292 -127 584 -128 861 0 171 3 215 23 305 104 486 431 928 937 1268 413
278 912 439 1294 419 248 -14 411 -83 552 -235 105 -114 164 -223 200 -371 27
-111 29 -304 4 -526 -24 -207 -19 -375 13 -458 45 -114 153 -203 316 -258 59
-20 90 -24 195 -24 122 0 127 1 195 34 133 65 226 192 277 377 32 117 32 393
0 548 -76 362 -255 707 -530 1020 -422 481 -935 672 -1602 595 -686 -79 -1525
-524 -1973 -1047 -663 -774 -862 -1854 -522 -2832 234 -673 632 -1162 1220
-1500 373 -215 806 -351 1425 -447 152 -24 445 -23 623 1 71 10 130 16 133 14
6 -7 115 -238 209 -448 l93 -205 -50 -27 c-159 -87 -340 -273 -501 -515 l-82
-123 -46 0 c-63 0 -144 -43 -186 -98 -133 -174 6 -421 224 -399 96 10 183 81
214 174 11 33 8 125 -5 168 -5 16 7 30 66 71 99 70 195 120 260 134 73 17 109
-1 134 -65 25 -66 15 -183 -40 -460 -24 -126 -48 -259 -52 -294 -6 -55 -12
-70 -40 -98 -45 -45 -65 -85 -71 -148 -14 -135 85 -255 225 -272 184 -21 328
177 251 347 -11 24 -26 52 -34 60 -11 12 -12 24 -3 60 7 27 12 170 13 365 1
354 8 399 65 457 66 65 185 17 368 -148 l43 -39 -15 -37 c-37 -88 -7 -210 69
-277 53 -46 94 -61 167 -61 80 0 132 24 184 83 68 77 83 173 40 262 -43 91
-119 143 -219 150 l-50 3 -72 140 c-133 258 -263 423 -429 547 l-27 20 31 105
c63 218 99 443 103 633 2 59 5 109 8 112 4 3 73 24 155 46 582 158 1210 388
1649 604 373 183 534 301 1179 860 371 321 538 455 711 569 143 94 354 221
359 214 2 -1 11 -46 21 -98 39 -209 100 -400 192 -606 l50 -110 -71 -37 c-138
-71 -257 -191 -394 -397 -42 -63 -101 -163 -131 -221 l-55 -105 -57 -11 c-114
-22 -198 -110 -207 -219 -7 -83 14 -140 72 -200 56 -57 97 -74 182 -74 166 0
283 168 229 330 l-17 52 48 44 c115 102 255 184 318 184 37 0 84 -45 97 -93
17 -61 13 -235 -10 -455 -12 -106 -21 -224 -21 -262 0 -64 -3 -74 -35 -115
-123 -161 -26 -384 175 -402 136 -13 253 83 267 219 7 67 -8 123 -48 178 -30
42 -32 47 -30 136 1 51 -10 201 -25 333 -29 266 -27 340 9 413 12 24 33 49 47
56 38 20 103 8 183 -31 92 -46 214 -138 208 -158 -11 -34 -12 -136 -2 -169 18
-61 65 -115 124 -144 142 -70 308 0 352 148 19 62 19 80 -1 145 -31 106 -125
173 -242 175 l-63 1 -56 90 c-144 232 -332 440 -468 521 l-70 41 3 49 c10 162
61 606 93 799 22 134 27 162 65 322 l26 113 76 24 c201 63 438 71 625 21 90
-23 315 -99 324 -109 2 -2 -16 -45 -42 -95 -152 -303 -177 -625 -74 -949 82
-255 271 -559 407 -650 180 -122 234 -142 382 -142 53 0 111 5 128 11 25 9 70
4 234 -25 438 -77 755 -105 978 -86 339 28 462 114 515 360 51 235 15 682 -98
1223 -14 64 -14 70 9 125 31 77 48 191 39 266 -21 192 -145 363 -315 438 -36
16 -87 41 -115 55 -27 14 -101 53 -162 85 -210 110 -414 161 -638 161 -201 0
-380 -43 -555 -134 -70 -36 -76 -38 -88 -22 -50 69 -173 201 -259 279 -194
175 -396 313 -659 450 l-151 79 19 75 c39 152 120 363 200 523 23 47 33 57 46
51 57 -24 132 -44 204 -55 154 -22 425 5 660 67 l98 26 32 -28 c81 -68 183
-83 273 -40 91 43 145 126 145 226 0 256 -343 345 -468 121 -26 -48 -26 -48
-72 -44 -93 10 -245 45 -297 69 -98 47 -117 104 -62 187 37 57 91 105 228 206
257 189 318 235 347 263 25 23 43 31 80 33 137 10 234 111 234 245 0 104 -47
183 -136 226 -75 37 -169 32 -240 -12 -56 -34 -109 -113 -120 -178 -6 -35 -16
-49 -68 -92 -33 -27 -135 -132 -226 -233 -171 -189 -227 -241 -295 -272 -84
-39 -140 -15 -181 78 -27 59 -54 199 -54 274 0 45 2 49 35 65 46 22 112 97
125 143 46 165 -58 316 -225 328 -52 4 -68 1 -121 -26z"/>
</g>
</svg>
